<svg>
  <path
    d="M18.4473 0C14.7988 0 11.2322 1.08192 8.19855 3.10894C5.16491 5.13596 2.80046 8.01704 1.40423 11.3878C0.00799298 14.7587 -0.357326 18.4678 0.354469 22.0462C1.06626 25.6247 2.8232 28.9117 5.40311 31.4916C7.98302 34.0715 11.27 35.8284 14.8484 36.5402C18.4269 37.252 22.136 36.8867 25.5068 35.4905C28.8776 34.0942 31.7587 31.7298 33.7857 28.6961C35.8128 25.6625 36.8947 22.0959 36.8947 18.4473C36.8887 13.5566 34.9432 8.868 31.4849 5.40975C28.0267 1.95151 23.338 0.00602302 18.4473 0ZM18.4473 35.199C15.1342 35.199 11.8954 34.2166 9.14061 32.3759C6.38581 30.5352 4.2387 27.9189 2.97081 24.8579C1.70291 21.797 1.37117 18.4288 2.01754 15.1792C2.66391 11.9297 4.25935 8.94487 6.60212 6.60211C8.94488 4.25934 11.9297 2.6639 15.1793 2.01753C18.4288 1.37116 21.797 1.7029 24.8579 2.9708C27.9189 4.23869 30.5352 6.3858 32.3759 9.1406C34.2166 11.8954 35.199 15.1342 35.199 18.4473C35.199 22.8902 33.4341 27.151 30.2926 30.2926C27.151 33.4341 22.8902 35.199 18.4473 35.199Z"
    fill="black"></path>
  <path
    d="M30.7823 13.3827C31.5231 13.9111 32.1727 14.5569 32.7055 15.2946C32.1496 12.7569 30.9261 10.4137 29.1615 8.50708C27.397 6.60047 25.1553 5.1996 22.6682 4.44922L19.4703 7.46498L22.4292 6.24729C23.8018 6.88124 25.0056 7.82992 25.9428 9.0163C26.8801 10.2027 27.5244 11.5934 27.8234 13.0754C28.1506 14.745 28.0168 16.4721 27.4365 18.0713C27.4365 18.0713 27.1292 18.8566 25.775 18.5948C24.4207 18.3331 23.6355 18.2648 21.3708 19.4825L21.166 19.5849C21.4029 21.7904 22.1511 23.9102 23.351 25.7758C23.1575 25.5937 18.9924 21.1554 19.4931 16.1367C19.4931 15.8294 19.5841 15.4539 19.6524 15.0783C19.6524 15.0783 20.0052 15.4539 20.3125 15.8067C21.5188 12.2902 22.304 13.0185 22.304 13.0185C22.4526 12.6067 22.4526 12.1558 22.304 11.7439C21.2311 12.1286 20.2614 12.7556 19.4703 13.5762C19.6186 13.1551 19.8531 12.7696 20.1588 12.4444C20.4645 12.1191 20.8346 11.8611 21.2457 11.687C23.1348 11.0725 23.2144 10.3556 23.2941 9.95725C23.3385 9.57244 23.2917 9.1826 23.1575 8.81922C23.0584 9.27118 22.8653 9.69724 22.5908 10.0697C22.3164 10.4423 21.9666 10.7529 21.5643 10.9815C21.1888 11.1294 20.8474 11.2318 20.5401 11.3229C20.8929 10.6401 21.1091 10.31 21.1091 10.31C21.1587 10.2422 21.2275 10.1908 21.3066 10.1624C21.3857 10.134 21.4715 10.1299 21.5529 10.1507C21.6066 10.1706 21.6549 10.2024 21.6944 10.2439C21.7338 10.2853 21.7633 10.3352 21.7805 10.3897C21.8164 10.1099 21.7934 9.82562 21.7131 9.55518C21.6327 9.28474 21.4968 9.03407 21.3139 8.81922C20.2147 9.53631 19.2578 10.4508 18.4916 11.5163C18.1387 11.589 17.8027 11.728 17.5016 11.926C17.4219 12.0057 17.3536 12.0967 17.274 12.1878L17.035 12.5064C16.3858 12.746 15.7512 13.0234 15.1345 13.3372L16.0677 13.9858L15.8287 14.4411C15.3735 14.7028 14.7931 15.067 14.1672 15.5108L15.1914 16.0115L15.0548 16.4554C14.6338 16.7854 14.1216 17.2178 13.5754 17.7299L14.7134 18.1055C14.7134 18.3445 14.6565 18.5835 14.6451 18.8338V19.1069C13.5543 18.4973 12.2709 18.3303 11.0604 18.6404C9.70612 18.9021 9.41023 18.1169 9.41023 18.1169C8.82014 16.5079 8.68623 14.7671 9.0233 13.0868C9.32235 11.6047 9.96664 10.2141 10.9039 9.02768C11.8411 7.8413 13.0449 6.89262 14.4175 6.25867L17.3764 7.47636L14.1899 4.4606C11.6932 5.19089 9.44178 6.58556 7.67596 8.4957C5.91014 10.4058 4.69626 12.7597 4.16395 15.3059C4.69113 14.5673 5.33719 13.9213 6.07582 13.3941C4.94058 15.0458 4.26168 16.9681 4.10781 18.9664C3.95394 20.9647 4.33055 22.9682 5.19955 24.7743C4.50535 19.8922 6.41723 17.2861 6.41723 17.2861C5.51147 19.8405 5.50012 22.6268 6.38504 25.1885C7.26996 27.7503 8.99867 29.9355 11.288 31.3862C9.65486 29.5997 8.62042 27.3478 8.32911 24.945C9.0503 26.0561 9.95007 27.0405 10.9921 27.8583C11.2652 29.0874 12.6081 33.1729 18.412 33.355C20.337 33.3712 22.2049 32.7015 23.681 31.4659C23.8386 31.527 24.0028 31.569 24.1704 31.591C25.0091 30.7552 25.7255 29.805 26.2985 28.7687C25.3118 29.5274 24.219 30.1371 23.0551 30.5782C23.0953 30.7391 23.1606 30.8928 23.2486 31.0334C22.0123 31.737 20.6079 32.0911 19.1858 32.0576C18.4616 32.1521 17.7264 32.0062 17.0932 31.6423C16.46 31.2784 15.9637 30.7166 15.6807 30.0433C16.5882 30.2465 17.5164 30.342 18.4461 30.3278C20.4561 30.3416 22.4372 29.8495 24.2071 28.8969C25.977 27.9443 27.4789 26.5618 28.5745 24.8767C28.2899 27.2815 27.2546 29.5353 25.6157 31.3179C27.905 29.8672 29.6337 27.682 30.5186 25.1203C31.4035 22.5586 31.3922 19.7722 30.4864 17.2178C30.4864 17.2178 32.3983 19.8239 31.7041 24.706C32.5558 22.9033 32.919 20.9084 32.7572 18.9211C32.5955 16.9338 31.9144 15.0239 30.7823 13.3827Z"
    fill="black"></path>
</svg>
